# xmcd
#
# Track frame offsets: 
#        150
#        40510
#        73623
#        165699
#        212663
#        266647
#        310232
#
# Disc length: 4567 seconds
#
# Revision: 1
# Processed by: cddbd v1.5.2PL0 Copyright (c) Steve Scherf et al.
# Submitted via: ExactAudioCopy v1.3
#
DISCID=5c11d507
DTITLE=Johan Coltrane - Spiritual
DYEAR=1963
DGENRE=Jazz
TTITLE0=Blue Train
TTITLE1=Impressions
TTITLE2=My Favourite Things
TTITLE3=Autumn Leaves
TTITLE4=Spiritual
TTITLE5=I Want to Talk to You
TTITLE6=Naima
EXTD=YEAR: 1963
EXTT0=
EXTT1=
EXTT2=
EXTT3=
EXTT4=
EXTT5=
EXTT6=
PLAYORDER=
